<svg version="1.2" xmlns="http://www.w3.org/2000/svg" viewBox="0 0 1418 1418" width="1418" height="1418"><defs><clipPath clipPathUnits="userSpaceOnUse" id="cp1"><path d="m0 0h1418v1418h-1418z"/></clipPath></defs><style>.a{fill:none;stroke:#fd9cca;stroke-miterlimit:100;stroke-width:64.6}</style><g clip-path="url(#cp1)"><path fill-rule="evenodd" class="a" d="m1182.4 119.7c0 28.7 0.6 57.5-0.6 86.1 33.6 9.1 70.3 11.5 103.7-0.5-40.7 65.4-122.2 105.1-151.5 177 41.2-7.2 85.9-46 120-71.7-65.3 46.3-131.9 131-163.1 205.3 82.9-74.8 161-131.7 206.1-241.4-33.9 59.2-104 178.5-91.8 240.2 5.2-3 6.2-7.1 11.3-9.1-30.4 69.1-109.4 126.8-157.5 186.3q0.5-5.4 0.2-10.8c48.2-13.4 115.1-17 100.1 42.7-10.8 43.3-73.9 61.2-97.6 96.2 47.6 11 118.8-9.5 157.8 23.8-85.8 27.8-177.8 41.3-263.3 67.9-10.7 111.1 172.1 71.8 218.1 26.5-106.1 29.9-196.9 34.7-218.5-103.2-44 90.2-29.2 196.1-25 294.2 1.6 38.6 9 87-44.6 87.7-12.1-20.1-18.5-44.6-18.1-67.9-32.1 62-47.2 143.6-42.9 213.2-5.5-43.3 19-86.6 47.8-117.6 27.3-29.2 51.4-25.1 77.3-41.1 72.6-45.1 102.4-126 183-162.1-57.7 17.7-144.9 77.7-148.2 145.9 94.1 9.6 147-117.6 209.4-167.8 30.4 38.4 57.9 149.1-2.9 172.6 38.9 0.9 100.6 3.5 139.9-12.8 62.6-26.1 56.1-79.5 85.8-129.1 36.4-61 99.3-47 143.5-90.4-68.4 45.2-91.1 260.7-20.1 302.8 21.3-60.4 11.3-258 104.5-265.5 1.5 57.5-30.8 130.8-7.3 183.8 53.4 3.8 72-63.1 85.5-102.4 35.8 25.6 151.7 157.1 156.8 20.9-80.9 37.2-128.4-8.4-185.7-66.8 127.2 4.4 162.9-65.7 218.7-169.1-18.7 14.3-35.6 30.7-45.3 51.8 29.4-64.3 102.8-173 161.1-217.2 38.6 17.6 153.1 1 179.9-34.1 29.3-38.2 12.1-24.2 3.3-61.4-11-46.7-44.1-122.9 15.4-152.8-16.3 21.3-26.8 45.8-45 64.7-20.1-45.8-22.2-104.2-23.8-153.7-1.7-51.8 23.4-164.7-14.8-202.8-56.8 65-112.3 131.9-170 195.3-65.9 72.5-119.1 82.5-154.5-12-12.5-33.3-13.2-129.6-49-144.8-42.6-18.2-118.6 66.2-142.9 92.7-53.7 58.5-36.8 79.3-53 148.2-90.1-65.5 83.2-115.2 64.8-169.4-15.1-44.7-135.4 6.8-170.9 10.9-6.9-49.5 15-113 65.7-126.2"/><path fill-rule="evenodd" class="a" d="m-675.2 1305c113.1-6.4 149.7-104.4 241.3-143.9 52.5-22.5 155.5-36.4 137.1-120-74.7-15.6-166-19.3-152.1-116.7 40.6 52.8 34.5 128.9 129.5 112.3 29.1-91.2-80.3-46.8-106.5-85.5-30.2-44.5 83.5-79.4 94.8-116.5-26.2-15.3-60.2-8.9-87.4-15.1 50.1-65.6 177.7-98.4 259.3-95.3-45.2-4.6-123.3 11.8-125.4 66.7 38.8 3.6 75-13.9 112.6-22.2-47.7 58-44 184.2-107.8 218.9-39.8-95.6 280.3-374.8 367-368.2-30.9 17.8-64.9 50.9-81.9 85.4 50.2-2.4 86.8-56.4 137.4-59.5-2.6 7.6-1.6 20.6-3.6 28.6 46.9 4.5 89.1-8.6 132.1-26.5-2.2 15.4 1.9 32.4-1.4 47.4 46.4-75.5 61-120.2-38-120.2 28-11.6 54-43.5 87.3-28.8 1.5 33.4 1.8 67-6 99.7 49.6 19.7 113.5 2.8 165.5 3.3 11.1 101.5-77.4 176-152.6 235.8-18.3-53.7-14.2-75.7-73.2-97.7-64.2-23.9-126.1-28-187.9 3.5-55 27.9-68.6 87.7-116.6 114.8-111.2 62.8-80.3-96.3-72.3-155.6-31.4 40.6-17.7 122.7-34.8 172.4-23 66.7-76.7 110.7-116.6 165.8-38.9 53.7-63.1 105.4-73 168.8-5.4 34.4-3.7 73.2-32.7 94.8 33.3-62.2 101.2-167.8 185.1-161.2 19.1 50.2 24.3 106.5 24.6 160.3 10.4-108.6 55.6-186.9 138.4-241.1 4.7 62.8 102.6 29.3 138.3 11.3-38.3 45.5-97.2 74.7-129.9 124.9 54.4-25.6 102.5-71.3 160.2-86.7 1.3 41.6-14.8 86.5-23.7 126.3 37.3-16.2 72.8-41.5 115.6-40.2 10.8 49.6-2.1 92.2 50 90.4 39.2-1.4 109.9-57.4 130.3-88.5-87.3-4.7-301.3-11.8-219.9-166.1q5.3-1.7 10.2 0.7c21.5 112.9 276.4 66.6 357 60.1-34.6 1.7-169-23.3-175.9-64.6-9.2-55.9 225.4-111.1 274.9-140-21.7 30.7-19.3 68.1-26.8 104.1"/><path fill-rule="evenodd" class="a" d="m-362 674.8c23.6 82.1 86.8-71.3 90.3-94.2 8.9-59.8-6.4-266.3 106.3-246.4 25.2 54.4-3.3 131.6-14 187.1 38.7-58.1 56.2-200.7 27.4-262.3-27.2 53.2-35.3 91-102.6 48.3-50.4-32-86.5-92.5-26.8-126 44.1-24.8 142.8 6.3 188.9 18.3 53.4 13.8 147.2 67.8 201 28.1 48.1-35.5-66-61.4-61.5-131 39.5-13.8 127.4-4.5 159.5 27 26.8 26.2 18.8 39.2 24.7 73.6 17.8 104.2 96.2 85.8 191.1 87.6-35.3-9.4-81.4-44-91.3-75.6 31.6 19.7 93.7 70.7 129 75.1 68.8 8.5 104.3-93.2 101.8-153.3-67.8-16.5-97.8 28.2-154.6 49.6 40.6-35 119.6-114.7 182.1-86.8 55.4 24.7 14.3 88.8 34.9 129.4 44 86.7 161.3 23.8 222.3 7.5-53.6 45.5-90.7 113.6-148.7 151.2-18.9 12.3-40.6 12.6-59.5 29"/></g></svg>