<svg xmlns="http://www.w3.org/2000/svg" viewBox="0 0 1238.06 672.1"><defs><style>.cls-1,.cls-2{fill:#736f6b;}.cls-1{opacity:0;}.cls-2{opacity:0.53;}</style></defs><g id="Layer_2" data-name="Layer 2"><g id="Layer_1-2" data-name="Layer 1"><path class="cls-1" d="M214.55,283.83c1.09.66,1.84,1.1,2.57,1.57L288.71,332a66,66,0,0,1,6.88,4.79c5.25,4.43,10.36,9.05,15.52,13.59q45.75,40.27,91.48,80.57c8.81,7.77,17.54,15.64,26.35,23.42a8.69,8.69,0,0,0,3.05,1.83c6,1.88,11.54,1.44,15.94-3.72a13.88,13.88,0,0,1,1.3-1.24l8.37,8.4a25.35,25.35,0,0,0-4.18,9,12,12,0,0,0,2.44,11.46c.47.54.94,1.09,1.42,1.62,14.87,16.42,29,33.52,44.32,49.5,3.1,3.23,5.95,6.69,8.93,10q18.45,20.68,36.88,41.37a4.13,4.13,0,0,0,2.86,1.53c1.6.12,3.18.31,4.77.47l22,2.23,21,2.1,21.71,2.2,21.23,2.11c7.32.73,14.63,1.49,22,2.23l21,2.1,21.71,2.2c7.07.71,14.15,1.39,21.23,2.1,7.32.74,14.63,1.5,21.95,2.23l21,2.1,21.71,2.21c7.08.7,14.16,1.38,21.24,2.1,8.74.88,17.49,1.8,26.24,2.68,7.15.73,14.32,1.41,21.48,2.13,8.75.88,17.49,1.79,26.24,2.67l26,2.58,26.73,2.71c8.67.87,17.34,1.72,26,2.6,8.83.88,17.66,1.79,26.49,2.68,8.59.87,17.19,1.7,25.78,2.57l32,3.22c4.38.45,8.75.93,13.13,1.34,1.28.12,2.11.59,2.28,2a15.49,15.49,0,0,0,.4,1.63c2.15,8.77,4.34,17.54,6.43,26.33a2.79,2.79,0,0,0,2.69,2.46c8.14,1.22,16.27,2.54,24.39,3.89a7.38,7.38,0,0,0,4-.37c6.07-2.26,12.17-4.46,18.23-6.74,2.3-.86,4.54-1.88,7.07-2.94-2.33-1.42-4.41-2.73-6.52-4a4.25,4.25,0,0,1-2.38-3.65c-.09-3.94.64-7.72,3.56-10.58,4.17-4.08,8.5-8,12.8-11.94,1-.91,2.15-1.65,3.16-2.56a4,4,0,0,1,4.69-.68c2.53,1.16,5,2.44,7.48,3.75,1.24.66,2.41,1.47,3.63,2.23a8.9,8.9,0,0,0,.77-.87q41.29-65,82.56-130a.3.3,0,0,0,0-.23c0-.07-.09-.13-.2-.27-.7.28-1.44.56-2.15.88l-50.48,22.78q-33.33,15-66.63,30.13c-2.11,1-3.89,1.15-5.81-.13a4.78,4.78,0,0,0-.64-.32l-46.48-22.28q-15.57-7.47-31.14-14.93a3.6,3.6,0,0,1-2.39-3c-.9-6.09-1.9-12.16-2.85-18.23q-3.45-22-6.89-44c-2-12.7-4.07-25.39-6.08-38.09-2.31-14.68-4.57-29.36-6.89-44-2.16-13.72-4.39-27.44-6.56-41.17-2.32-14.68-4.58-29.36-6.9-44s-4.69-29.34-7-44c-2-12.7-4-25.41-6-38.11q-3.74-23.67-7.53-47.33c-.13-.84-.41-1.65-.62-2.52-.61.06-1,.08-1.39.13q-11.88,1.56-23.76,3.12-11.29,1.5-22.57,3-11.64,1.58-23.28,3.15c-7.68,1-15.36,2-23,3.08s-15.36,2.1-23,3.13c-7.84,1-15.68,2.06-23.52,3.11-7.68,1-15.35,2.1-23,3.13s-15.53,2-23.29,3.08c-8.95,1.2-17.89,2.44-26.84,3.64s-17.74,2.35-26.61,3.52l-24.71,3.25c-8.08,1.07-16.16,2.11-24.24,3.2a76.47,76.47,0,0,1-14.1.82c-1.29-.07-2.16-.44-2.29-1.87a8.28,8.28,0,0,0-.33-1.15q-11.13-42.66-22.24-85.32Q635.3,62.65,624,19.53c-.23-.9-.54-1.78-.86-2.84-2.78.57-5.39.9-7.85,1.66-7.48,2.31-14.9,4.79-22.35,7.21l-17.08,5.6c-1.14.37-2.4.7-2.84,1.95-.85,2.4-2.7,4-4.53,5.47-2.84,2.35-8.43,2.48-11.41.23a29.69,29.69,0,0,1-8-10.06,14.48,14.48,0,0,0-1.79-3,178.85,178.85,0,0,0-25.69-22.3A17.28,17.28,0,0,0,511.79,0a18.91,18.91,0,0,0-15,6.74c-3.11,3.5-5.6,7.57-8.42,11.34q-17.85,23.8-35.74,47.58L366.7,180q-25,33.3-50,66.58c-.61.82-1.26,1.6-2,2.51-.93-.59-1.68-1-2.39-1.52a153.74,153.74,0,0,0-38.2-19.28,15.56,15.56,0,0,1-2.41-1.05q-24.27-12.58-48.52-25.21a85,85,0,0,1-11.13-6.56c-16.51-12.12-32.57-24.82-48.38-37.84-3.75-3.09-7.19-3.57-11.63-1.62-22,9.72-43.72,20.11-64.61,32.11A307.47,307.47,0,0,0,50.85,212.3a138.07,138.07,0,0,0-20.66,19.62c-9.84,11.69-19.3,23.69-28.92,35.56-.54.66-1,1.38-1.27,1.73a79.92,79.92,0,0,0,5.64,6.24Q25,292.9,44.42,310.19c.58.51,1.21,1,1.93,1.56,3-4,5.37-8.25,8.36-12.15L60,302.9l9-8.09c.73.82,1.32,1.44,1.88,2.1,1.39,1.64,1.39,1.66,3.44,1,2.36-.76,4.78-1.39,7-2.37,4-1.76,8.25-1.67,12.48-1.54a2.82,2.82,0,0,1,1.87.78c2.57,3.06,6,4.11,9.78,4.35,8.3.52,16.6,1,24.9,1.5l23,1.37c1.08.06,2.17,0,3.15,0a8,8,0,0,0,.38-1c1.12-5.88,2.23-11.76,3.37-17.64.43-2.23.54-2.28,2.85-2.17,4.63.23,9.26.43,13.89.71a12.48,12.48,0,0,1,3.49.67c5.26,1.89,10.5,3.86,15.74,5.8,3.37,1.25,6.76,2.45,10.11,3.77a1.81,1.81,0,0,0,2.6-.82,19.41,19.41,0,0,1,1.24-1.77C211.63,287.74,213,285.89,214.55,283.83Z"/><path class="cls-2" d="M733.65,394.44c1.22,2.84,2.33,5.23,3.28,7.68a60,60,0,0,0,11.79,18.51c6.38,7.06,12.61,14.27,19.26,21.06,6.27,6.39,12.85,12.48,19.57,18.39q11.43,10.05,23.37,19.51a197.62,197.62,0,0,0,27.16,18.46c10.31,5.7,20.91,10.79,32.46,13.52A117.57,117.57,0,0,0,911.75,514c6.59-.78,13.22-1.17,19.77-2.17,20.84-3.16,41-8.67,59.73-18.59a86.62,86.62,0,0,0,18.81-13.18c2-1.9,3.75-4.13,5.62-6.21.4-.45.82-.89,1.54-1.68.28,1.15.52,1.88.63,2.63q3.63,23.24,7.18,46.46a4.07,4.07,0,0,0,2.7,3.29c9.24,4.41,18.45,8.87,27.68,13.31l37.19,17.9c7.06,3.4,14.14,6.76,21.18,10.21a4.1,4.1,0,0,0,3.85,0q30.38-13.78,60.78-27.48,18.25-8.25,36.54-16.44c.62-.29,1.28-.5,2.28-.88a8.8,8.8,0,0,1-.48,1.4q-32.07,50.51-64.26,101.16c-1.32-.62-2.37-1.16-3.47-1.61-3.12-1.28-6.33-2.56-9.74-1.64a16.21,16.21,0,0,0-5.59,2.57c-3.11,2.37-6,5.07-8.84,7.73s-5.53,5.31-8.27,8a7.43,7.43,0,0,0-1.37,1.65c-2.34,4.27-3.9,8.79-3.7,13.72a45,45,0,0,0,.85,5.32,12.73,12.73,0,0,1-1.64.85c-3,1.13-6,2.3-9,3.3a7.49,7.49,0,0,1-3.26.28c-5.61-.82-11.21-1.81-16.82-2.61-2-.28-3-1-3.52-3.13-2.12-9-4.44-18-6.69-27-.61-2.45-.6-2.52-3.14-2.78-6.92-.72-13.84-1.38-20.76-2.08-7.24-.72-14.47-1.47-21.71-2.19L1004.58,622q-11-1.1-22-2.22l-20.51-2.07-22.43-2.27c-7.07-.7-14.15-1.38-21.23-2.09l-21.71-2.21L876,609.06q-11.1-1.12-22.19-2.25c-7.16-.71-14.32-1.4-21.47-2.12s-14.47-1.48-21.71-2.22c-7-.7-14-1.38-21-2.09-8.82-.88-17.65-1.79-26.47-2.68l-21-2.09-26.48-2.69c-7.07-.72-14.15-1.4-21.23-2.11q-11-1.11-22-2.22l-21.23-2.13-21.47-2.18-21.23-2.11-22.19-2.26-20.52-2q-5.6-.55-11.21-1.07a5.08,5.08,0,0,1-3.51-1.79q-10.35-11.67-20.77-23.28l-18.68-20.94c-1.68-1.88-1.69-1.87-.43-4.07q21.62-37.94,43.24-75.88c2.14-3.75,4.3-7.49,6.43-11.25.93-1.63.93-1.7,2.83-1.23a168.07,168.07,0,0,0,22.49,3.55,181.52,181.52,0,0,0,28.26,1,185.48,185.48,0,0,0,46.9-8.07,193.56,193.56,0,0,0,34.44-14.51,182.66,182.66,0,0,0,31.06-20.77C729,397.78,731.22,396.26,733.65,394.44Z"/><path class="cls-2" d="M734.29,296.2c.42-.75.79-1.43,1.16-2.11,2.85-5.18,5.8-10.31,8.52-15.57a64.34,64.34,0,0,0,6.92-27.45,115.09,115.09,0,0,0-5.24-37.6c-1.72-5.73-5-10.71-8.15-15.71-.59-.93-1.2-1.85-1.94-3a10.25,10.25,0,0,1,1.74-.56q27.23-3.59,54.44-7.12c15.54-2,31.08-4,46.62-6,15.29-2,30.58-4,45.88-6s30.76-4,46.14-5.94q17.48-2.28,34.94-4.6l.24,0c2.92-.37,3.13-.27,3.6,2.6,1.55,9.55,3.05,19.1,4.57,28.65q4,24.87,7.94,49.73,3.5,21.9,7,43.82t7,44.05q3.25,20.59,6.48,41.21c2.17,13.82,4.37,27.64,6.5,41.46q2.73,17.66,5.32,35.33a22.07,22.07,0,0,1-2.77,14.34c-3.67,6.51-9,11.36-15.2,15.36a133,133,0,0,1-30,14.33,199.47,199.47,0,0,1-38.74,8.89c-7.62.92-15.24,2-22.89,2.32-20.31,1-39.58-2.81-57.49-12.88a270.72,270.72,0,0,1-38.87-26.79,479.71,479.71,0,0,1-52-49.95c-6.69-7.41-11-16-14.39-25.24a5.39,5.39,0,0,1-.26-2.58c.72-4.65,1.32-9.34,2.38-13.92A180.2,180.2,0,0,0,748,347.56c.67-9.17,1.4-18.34,1.71-27.52.28-8.34-2.85-15.31-9.79-20.28C738.18,298.51,736.3,297.46,734.29,296.2Z"/><path class="cls-2" d="M606.59,435.09a224.78,224.78,0,0,1-44.26-5.25c-22-4.78-42.64-13-62.58-23.2a391.89,391.89,0,0,1-72-47.85A356.55,356.55,0,0,1,400.69,334a31.58,31.58,0,0,1-2.87-3.53,283.71,283.71,0,0,0-24.42-28.33c-12.41-12.83-25.56-24.86-39-36.59-.84-.74-1.69-1.47-2.48-2.26a16.36,16.36,0,0,1-2-21.1q5.85-8.35,12.07-16.44a16.08,16.08,0,0,1,19.14-5.33c19.33,7.94,39.67,11.77,60.17,14.83a109.77,109.77,0,0,0,35.12-.21A69.52,69.52,0,0,0,481,225.86c6.55-4,13.13-8,19.83-11.71,14.33-8,28.79-8.33,43.18-.14a208.1,208.1,0,0,1,34.86,25c10.76,9.49,17.51,21.33,21.33,34.91a28.9,28.9,0,0,0,11.61,16.45c10.24,7.24,21,13.49,32.79,17.82a100.21,100.21,0,0,0,29.7,6.19,78.93,78.93,0,0,0,34.27-5.57,106.35,106.35,0,0,0,10.11-5,11.52,11.52,0,0,1,5.73-1.48c7.61.16,16.37,5.23,17,15.92a107.38,107.38,0,0,1-1.06,19.62c-1.23,9.43-2.41,18.87-3.7,28.29-.55,4-1.22,8.06-2.06,12a17.33,17.33,0,0,1-6.56,10c-4.7,3.74-9.26,7.65-14.11,11.17a187.29,187.29,0,0,1-52.75,27,165.6,165.6,0,0,1-36.58,7.52C618.56,434.41,612.57,434.7,606.59,435.09Z"/><path class="cls-2" d="M614.36,27.58c16.68,58.73,33.3,117.24,50,176,2.69-.32,5.35-.69,8-.93,4-.35,8-.83,11.94-.87,11.83-.11,23.67,0,35.51,0A17.58,17.58,0,0,1,735,209.52a27.22,27.22,0,0,1,3.84,9,124,124,0,0,1,2.87,15.78c1.46,12.66-.26,25-4.1,37.13-3,9.34-8.85,16.15-16.57,21.66a61.57,61.57,0,0,1-6,3.44c-.62.35-1.3.61-1.93,1-13.37,7.45-27.71,10-42.83,8.27A86.47,86.47,0,0,1,629.05,290a73.72,73.72,0,0,1-23.21-27.63c-11.68-23.38-28.34-42.05-51.94-54a20,20,0,0,1-4.52-3.1c-4.06-3.75-8.93-5.47-14.29-6.14-6.86-.85-13.55.24-20.21,1.67-11.43,2.45-22.07,7.09-32.49,12.17-7.54,3.68-14.87,7.79-22.25,11.81a20.25,20.25,0,0,1-9.37,2.59,238.12,238.12,0,0,1-48-3.45,149,149,0,0,1-20.13-5.45c-8.27-2.71-16.39-5.91-24.56-8.92-.88-.33-1.69-.8-2.78-1.32.65-.95,1.11-1.67,1.62-2.35q24.52-32.59,49.07-65.17,38.26-50.94,76.49-101.9,9.64-12.86,19.13-25.84a7.92,7.92,0,0,1,6.48-3.5A28.41,28.41,0,0,1,518,11a5.94,5.94,0,0,1,2,1.28c6.15,5.35,12.27,10.75,18.43,16.09a3.72,3.72,0,0,1,1.4,3.34c-.38,5.93,2.41,10.05,7.74,12.26a70.35,70.35,0,0,0,12.68,4.28,23.26,23.26,0,0,0,13.17-1.5A10.59,10.59,0,0,0,579.75,40a3.27,3.27,0,0,1,2.36-2.39c10.07-3.16,20.12-6.38,30.19-9.56C612.82,27.87,613.36,27.8,614.36,27.58Z"/><path class="cls-2" d="M212.58,273c-2,2.84-3.86,5.45-5.69,8.05-1.45,2.06-1.45,2.06-3.89,1.15-6-2.23-12-4.38-18-6.72a27.87,27.87,0,0,0-8.86-1.85c-3.91-.18-7.82-.43-11.74-.49-3.34-.06-6.69.11-10,.16-1.11,0-1.26.77-1.38,1.59-.35,2.46-.69,4.91-1,7.36-.44,3.09-.87,6.18-1.35,9.26-.32,2-.47,2.18-2.42,2.06-8.77-.54-17.55-1.13-26.32-1.67-4.15-.26-8.3-.42-12.45-.67-1.81-.11-3.61-.35-5.57-.54l.49-3.74c-.21-.18-.32-.37-.44-.38-6.06-.2-12.12-.42-18.19-.56a8.24,8.24,0,0,0-2.56.53,61.22,61.22,0,0,0-5.91,2,3,3,0,0,1-3.81-.95l-3.36-3.85-10.75,9L52.5,289.1c-2.42,3.41-4.89,6.87-7.58,10.64-11.66-10.13-23.09-20.07-34.38-30.49a21.06,21.06,0,0,1,1.22-1.87Q24.9,251.17,38.06,235a16.09,16.09,0,0,1,2.38-2.36q6.08-4.87,12.22-9.68a90.22,90.22,0,0,1,12.86-8.31q41.82-22.53,83.49-45.34c2.11-1.14,4.29-2.18,6.29-3.49,1.8-1.17,3.1-1.06,4.88.28,16.35,12.19,32.57,24.55,48.35,37.48a33,33,0,0,0,6.21,4c18.17,9.08,36.43,18,54.57,27.12,14,7.06,27.94,14.23,41.7,21.73a56,56,0,0,1,11.32,8.8c6.33,6,12.32,12.33,18.43,18.55q6.66,6.75,13.24,13.56,16.9,17.37,33.78,34.75c6,6.15,11.62,12.57,17.77,18.51a353.73,353.73,0,0,0,40.37,33.19,363.62,363.62,0,0,0,56.5,33.42,340.22,340.22,0,0,0,48.4,18.38c.75.22,1.49.49,2.56.84-.54,1.15-.94,2.16-1.47,3.08q-10.33,18.13-20.7,36.26-12.57,22-25.17,43.92c-.46.82-1,1.59-1.67,2.64-.8-.77-1.46-1.32-2-1.95q-19.57-21.92-39.14-43.85a7.88,7.88,0,0,1-.75-9.33c1.64-2.34,3.14-4.84,5.75-6.32a9.19,9.19,0,0,0,1.27-1.17c-7.37-7.4-14.69-14.7-22.33-22.34-.65,1.63-1.17,2.77-1.56,4a6.13,6.13,0,0,1-2.31,3.25c-1.77,1.24-3.52,2.49-5.31,3.69a3,3,0,0,1-3.94-.31c-2.79-2.4-5.64-4.73-8.4-7.15Q391.73,411,357.89,381.2q-28.8-25.38-57.53-50.84a28.91,28.91,0,0,0-3.26-2.45q-36.87-24-73.78-48-4.22-2.76-8.45-5.49C214.21,274,213.52,273.57,212.58,273Z"/></g></g></svg>